<svg viewBox="0 0 24 24" fill="#00A1D6" xmlns="http://www.w3.org/2000/svg"><path d="M17.87 2.05a.76.76 0 0 0-.69.07l-3.22 2.37H10l-3.2-2.37a.76.76 0 0 0-1.07.19.78.78 0 0 0 .19 1.07l2.87 2.13h-2.1a4.67 4.67 0 0 0-4.67 4.67v6.62a4.67 4.67 0 0 0 4.67 4.67h10.66a4.67 4.67 0 0 0 4.67-4.67v-6.62a4.67 4.67 0 0 0-4.67-4.67h-2.13l2.87-2.13a.78.78 0 0 0-.09-1.28l-.07-.05ZM5.68 7.21h12.64A2.39 2.39 0 0 1 20.7 9.6v6.62a2.39 2.39 0 0 1-2.39 2.39H5.68A2.39 2.39 0 0 1 3.3 16.22V9.6A2.39 2.39 0 0 1 5.68 7.21Zm2.3 3.61a1.5 1.5 0 1 0 0 3 1.5 1.5 0 0 0 0-3Zm8.04 0a1.5 1.5 0 1 0 0 3 1.5 1.5 0 0 0 0-3Z"/></svg>