<svg viewBox="0 0 24 24" fill="#010101" xmlns="http://www.w3.org/2000/svg"><path d="M12.525.02c1.31-.02 2.61-.01 3.91-.02.08 1.53.63 3.02 1.59 4.23.99 1.18 2.37 1.93 3.86 2.14v3.83c-1.63-.09-3.21-.73-4.48-1.78-.17-.14-.33-.29-.48-.45v6.52c.01 1.76-.56 3.49-1.63 4.84a8.163 8.163 0 0 1-8.15 2.58A8.16 8.16 0 0 1 .535 14.1c-.69-2.31.06-4.88 1.84-6.52a8.15 8.15 0 0 1 7.7-1.87v3.91c-.81-.32-1.72-.25-2.47.19-.78.47-1.28 1.31-1.35 2.22-.09 1.22.65 2.36 1.77 2.76 1.09.39 2.33-.03 2.92-1.02.26-.44.39-.95.39-1.47V.02h.22z"/></svg>